<svg height="100%" xmlns="http://www.w3.org/2000/svg" viewBox="0 -25 134.7 125.333064" width="16" version="1.1">
	<path fill="#575756" d="m61-16.311,8,8-7.8,7.8-8-8zm54.2,54.3-7.7,7.8-7.8-7.7,7.8-7.8zm-108.6-0.1,8-8,8.2,8-8,8.2zm54.4,54.4-8-7.7,8.3-8.3,7.8,7.8z"/>
	<path fill="#e61471" d="m84-7.7108,23,22.8-7.3,7.3,7.8,7.8,15-15-38.3-38.5-15.2,15,7.8,8z"/>
	<path fill="#c41460" d="M76.8-0.3108,69,7.1892,61.2-0.3108,69-8.3108z"/>
	<path fill="#3aaae1" d="m15.6,15.089,22.8-22.8,7,7l7.7-7.9998-14.6-14.6-38.5,38.4,14.7,14.6,7.8-7.6z"/>
	<path fill="#3392c0" d="m22.5,21.989,8,8.2-7.6,7.7-8.3-8z"/>
	<path fill="#94c124" d="m45.4,76.689-7,7-22.8-23,7-6.8-8-7.8l-14.6,14.6,38.4,38.6,14.6-14.8z"/>
	<path fill="#7fa520" d="m45.4,76.689,8-8,8,7.7-8.2,8z"/>
	<path fill="#f39200" d="m107,60.689-23,23-7.2-7.3-7.7,7.8,15,15,38.6-38.4-15-15-8,7.8z"/>
	<path fill="#ce7e00" d="m99.7,53.489-7.7-7.8,7.7-7.7,7.8,7.7z"/>
	<path fill="#c41460" d="M99.7,22.389,92,30.189l-8,7.8,8,7.8,6.7-6.7,1-1,7.8-7.8z"/>
	<path fill="#ce7e00" d="m69,68.689-7.7-8-7.9,8,7.8,7.7,7.8,7.8,7.8-7.8z"/>
	<path fill="#7fa520" d="m38.4,37.989-7.8-7.8-0.2,0.3-7.5,7.5-8.3,8,7.8,8,8-8.2z"/>
	<path fill="#89b02e" d="m38.4,37.989-7.7-7.8"/>
	<path fill="#3392c0" d="M69,7.2892,62.4,0.6892,53-8.7108l-7.6,7.8,9,9,7,7z"/>
	<path fill="none" d="m-56.6-128.5h612v300.3h-612z"/>
</svg>
